<svg height="256" viewBox="0 0 256 256" width="256" xmlns="http://www.w3.org/2000/svg"><path d="m187.77373 40.428568a86.237727 86.237727 0 0 0 -91.20834.08803 86.237727 86.237727 0 0 0 -27.471294 118.824152 86.237727 86.237727 0 0 0 10.494989 13.58189l25.140295-32.25723c3.76508-4.83124 10.6864-5.69095 15.51763-1.92586 4.83123 3.7651 5.68893 10.68478 1.92385 15.51599l-25.44518 32.65382a86.237727 86.237727 0 0 0 91.19255-.0974 86.237727 86.237727 0 0 0 27.4713-118.824133 86.237727 86.237727 0 0 0 -10.48851-13.5734l-25.78037 32.135799c-3.83281 4.777684-10.76394 5.540094-15.54162 1.707292-4.77768-3.832807-5.53848-10.765946-1.70566-15.543629z" fill="#646464" stroke-width="1.32674"/><path d="m141.51635 28.990588a86.237727 86.237727 0 0 0 -45.07269 13.088545 86.237727 86.237727 0 0 0 -7.447326 5.216241 132.67343 29.85152 37.191992 0 1 72.231866 46.023676 132.67343 29.85152 37.191992 0 1 60.91057 54.05925 86.237727 86.237727 0 0 0 -6.86948-77.829031 86.237727 86.237727 0 0 0 -10.48949-13.573114l-25.78062 32.13703c-3.8328 4.777695-10.76478 5.537865-15.54248 1.70505-4.77768-3.832796-5.53787-10.764792-1.70507-15.542475l25.89982-32.284732a86.237727 86.237727 0 0 0 -46.1351-13.00044zm80.62242 118.387712a86.237727 86.237727 0 0 1 -2.9437 6.53001 117.03692 23.111237 37.191992 0 1 16.43908 32.61901 117.03692 23.111237 37.191992 0 1 -35.94102-7.09751 86.237727 86.237727 0 0 1 -6.55594 5.32249 132.67343 29.85152 37.191992 0 0 55.73321 12.54955 132.67343 29.85152 37.191992 0 0 -26.73163-49.92355zm-29.00158 37.374a132.67343 29.85152 37.191992 0 1 -68.00031-43.87034 132.67343 29.85152 37.191992 0 1 -63.429298-56.803397 86.237727 86.237727 0 0 0 7.26594 76.823617 86.237727 86.237727 0 0 0 10.49468 13.58089l25.140578-32.25623c3.76509-4.83122 10.68535-5.6904 15.51657-1.92532 4.83124 3.76509 5.69041 10.68535 1.92532 15.51658l-25.44636 32.65267a86.237727 86.237727 0 0 0 91.19226-.0959 86.237727 86.237727 0 0 0 5.34062-3.62261zm-131.429608-100.673737a86.237727 86.237727 0 0 1 3.189867-7.240031 117.03692 23.111237 37.191992 0 1 -15.731658-31.807934 117.03692 23.111237 37.191992 0 1 7.680557-2.321785 117.03692 23.111237 37.191992 0 1 27.091808 8.864762 86.237727 86.237727 0 0 1 5.058178-4.278201 132.67343 29.85152 37.191992 0 0 -40.162226-13.785597 132.67343 29.85152 37.191992 0 0 -11.342013 3.391982 132.67343 29.85152 37.191992 0 0 24.215487 47.176804zm22.230574-32.504988a86.237727 86.237727 0 0 0 -19.040707 25.264957 117.03692 23.111237 37.191992 0 0 63.530361 57.352748 117.03692 23.111237 37.191992 0 0 71.26532 45.23853 86.237727 86.237727 0 0 0 19.50194-25.5215 117.03692 23.111237 37.191992 0 0 -62.82292-56.54167 117.03692 23.111237 37.191992 0 0 -72.433994-45.793065z" fill="#646464" stroke-width="1.32674"/><g fill="#9d9d9d"><g stroke-width=".473833"><path d="m234.68738 200.16973c-3.71868-.5857-9.88512-2.19794-14.38234-3.76032-11.62888-4.04001-29.07843-12.34431-25.93869-12.34431.19994 0 1.47086-.96868 2.82428-2.15263l2.46078-2.15262 5.82317 2.57041c18.22498 8.04468 30.09178 8.83646 31.28575 2.08748.88661-5.01168-3.8045-14.16601-13.2013-25.76124l-3.94641-4.86972 1.30822-2.9297 1.30823-2.92971 3.5552 3.97231c17.10575 19.11263 25.80439 34.41335 24.04107 42.28768-.50399 2.25063-2.3137 4.39383-4.50025 5.32962-1.99244.85269-7.30026 1.1784-10.63771.65275z"/><path d="m58.264269 79.736963c-13.5936-15.568167-22.048042-29.960993-22.048042-37.534558 0-2.896407 1.721929-5.944523 4.027581-7.129552 2.341235-1.203306 8.287193-1.554524 12.912057-.762693 7.517687 1.287117 18.689983 5.199774 29.896431 10.470037l5.37561 2.528095-2.258824 1.959583-2.258813 1.959586-4.590042-2.020073c-13.895799-6.115528-24.481069-8.162422-28.853626-5.579485-5.602428 3.309429-1.279542 14.746125 11.300578 29.897054l2.837089 3.416857-1.521711 3.285284-1.521725 3.285281z"/><path d="m185 180c-30.95697-17.12321-65.62263-42.1754-95.951321-69.3421-8.35345-7.48253-26.770999-25.84629-26.772963-26.69475-.000742-.323245.560519-1.911479 1.247276-3.52941l1.24863-2.941704 9.205997 9.435123c32.077881 32.876211 77.902621 67.477151 117.019651 88.358191l8.12955 4.33962-2.74263 2.22007c-1.50843 1.22104-3.03448 2.21945-3.39119 2.21872-.35672-.00095-3.95357-1.82942-7.993-4.06376z"/></g><path d="m31.446233 44.675317a116.08925 116.08925 0 0 0 -23.181563 69.604303 116.08925 116.08925 0 0 0 94.55832 114.07584v-14.09138a111.39854 113.07379 0 0 1 -87.792506-110.50503 111.39854 113.07379 0 0 1 16.415749-59.083733z" stroke-width="1.32674"/></g><circle cx="107.07611" cy="223.64771" fill="#646464" r="16.584179" stroke-width="1.32674"/></svg>